<svg xmlns="http://www.w3.org/2000/svg" data-name="Layer 1" viewBox="0 0 24 24" id="Google-Color-Icon"><path fill="#EA4335" d="M22.44 12.22a10.78 10.78 0 0 0-.22-1.92H12v3.61h5.79a4.35 4.35 0 0 1-1.89 2.86v2.34h3a10.78 10.78 0 0 0 3.54-7.59Z"></path><path fill="#34A853" d="M12 23a10.5 10.5 0 0 0 7.74-3.36l-3-2.34a6.63 6.63 0 0 1-4.74 2.08 6.54 6.54 0 0 1-6.17-4.54H2.8v2.43A11 11 0 0 0 12 23Z"></path><path fill="#4285F4" d="M5.83 14.52a6.54 6.54 0 0 1 0-9.04V3.05H2.8A11 11 0 0 0 12 1C6.61 1 2.07 4.13 0 8.62l3 2.43a6.54 6.54 0 0 1 2.83-6.53Z"></path><path fill="#FBBC04" d="M23 12a10.78 10.78 0 0 0-.22-1.92H12v3.61h5.79a4.35 4.35 0 0 1-1.89 2.86v2.34h3a10.78 10.78 0 0 0 3.54-7.59Z"></path></svg>
